Coordinates
version=1
nRows=9
nColumns=24
inDegrees=yes

Units are S.I. units (second, meters, Newtons, ...)
Angles are in degrees.

endheader
time	pelvis_tilt	pelvis_list	pelvis_rotation	pelvis_tx	pelvis_ty	pelvis_tz	hip_flexion_r	hip_adduction_r	hip_rotation_r	knee_angle_r	ankle_angle_r	subtalar_angle_r	mtp_angle_r	hip_flexion_l	hip_adduction_l	hip_rotation_l	knee_angle_l	ankle_angle_l	subtalar_angle_l	mtp_angle_l	lumbar_extension	lumbar_bending	lumbar_rotation
      1.41633333	      3.23399372	     -4.50860508	     -7.75348786	      0.95600735	      1.00484434	      0.29500970	    -22.22999161	      7.90661361	     11.74100857	    -10.38914387	     14.10122662	     -2.31666272	      2.49106556	     24.46229287	     -5.83798138	     -3.04963256	      2.38571470	      8.59444684	    -11.50634621	     -8.43488770	     -4.40238013	      1.35236915	      7.49192330
      1.42050000	      3.21277788	     -4.36049821	     -7.87711391	      0.96179607	      1.00420171	      0.29487032	    -22.42785294	      7.66310271	     11.72457016	    -10.57070945	     13.99396248	     -2.27145067	      2.50488153	     24.41516442	     -5.69226860	     -2.78040722	      1.82854864	      8.87950474	    -11.88939776	     -8.39266519	     -4.28425169	      1.14975624	      7.59623731
      1.42466667	      3.16817072	     -4.22752825	     -8.03277259	      0.96761501	      1.00353926	      0.29474860	    -22.57680349	      7.42425435	     11.69715444	    -10.80741218	     13.86750032	     -2.18777615	      2.55444528	     24.37606164	     -5.57119269	     -2.50259416	      1.28174266	      9.11505021	    -12.37768394	     -8.32481374	     -4.13801608	      0.97301019	      7.77122356
      1.42883333	      3.13294842	     -4.07184057	     -8.18185204	      0.97351152	      1.00290004	      0.29461126	    -22.74502302	      7.16180076	     11.69677600	    -11.02012809	     13.71777549	     -2.14673874	      2.56731142	     24.31936586	     -5.42086516	     -2.33380110	      0.73832083	      9.41218685	    -12.64608790	     -8.30062812	     -4.01101997	      0.78340700	      7.81134422
      1.43300000	      3.08884563	     -3.93670490	     -8.30469096	      0.97943957	      1.00223340	      0.29441303	    -22.88212411	      6.92586506	     11.59181277	    -11.27913191	     13.58414176	     -1.99244991	      2.68290508	     24.24271560	     -5.27273552	     -1.98907298	      0.25894253	      9.52896953	    -13.20626429	     -8.20130972	     -3.82948369	      0.60018580	      8.06464561
      1.43716667	      3.05570360	     -3.78063366	     -8.43597456	      0.98544486	      1.00159424	      0.29421789	    -23.03907590	      6.66169854	     11.53006837	    -11.51830856	     13.43307772	     -1.86593324	      2.87480359	     24.14479430	     -5.10256123	     -1.73124007	     -0.21339036	      9.65826620	    -13.66463779	     -8.05662385	     -3.66868720	      0.40230066	      8.18769671
      1.44133333	      3.01625966	     -3.62335079	     -8.56602850	      0.99148426	      1.00095105	      0.29401183	    -23.18328723	      6.39929573	     11.47994730	    -11.76671641	     13.21940334	     -1.82033833	      2.90442101	     24.06390313	     -4.93226856	     -1.60557218	     -0.70185680	      9.86871306	    -13.86685811	     -8.02567775	     -3.52662125	      0.21592770	      8.22071832
      1.44550000	      2.97999270	     -3.46241075	     -8.65965573	      0.99760037	      1.00030215	      0.29374187	    -23.32142271	      6.13804809	     11.32033922	    -12.03170338	     13.04019796	     -1.63133652	      3.05629153	     23.96393823	     -4.73710079	     -1.38145228	     -1.14432304	      9.89873616	    -14.25139091	     -7.92115813	     -3.33410491	     -0.01211115	      8.42857272
      1.44966667	      2.94632207	     -3.29762041	     -8.78902847	      1.00376769	      0.99968561	      0.29351954	    -23.45373625	      5.86185386	     11.22504149	    -12.31540897	     12.80291502	     -1.53032283	      3.14502953	     23.83782341	     -4.55233185	     -1.26473455	     -1.54274655	      9.98031421	    -14.50099792	     -7.85676647	     -3.13519808	     -0.21894304	      8.49058258
